<?xml version="1.0" encoding="UTF-8" standalone="no"?><!DOCTYPE svg PUBLIC "-//W3C//DTD SVG 1.1//EN" "http://www.w3.org/Graphics/SVG/1.1/DTD/svg11.dtd"><svg width="100%" height="100%" viewBox="0 0 667 209" version="1.1" xmlns="http://www.w3.org/2000/svg" xmlns:xlink="http://www.w3.org/1999/xlink" xml:space="preserve" xmlns:serif="http://www.serif.com/" style="fill-rule:evenodd;clip-rule:evenodd;stroke-linejoin:round;stroke-miterlimit:2;"><clipPath id="_clip1"><rect id="path2" x="12.355" y="8.884" width="132.544" height="193.529"/></clipPath><g clip-path="url(#_clip1)"><path d="M49.856,281.349l-0.956,-0.927l0,-27.91c0,-27.663 0.007,-27.918 0.807,-28.904c0.778,-0.96 0.95,-0.995 4.807,-0.995c3.317,0 4.105,0.113 4.612,0.661c0.336,0.363 0.732,1.289 0.879,2.058l0.267,1.396l1.384,-1.303c0.762,-0.717 2.365,-1.771 3.563,-2.341c1.934,-0.921 2.613,-1.037 6.072,-1.037c2.743,-0 4.526,0.205 6.035,0.694c1.178,0.382 3.06,1.363 4.183,2.181c1.122,0.817 2.659,2.374 3.416,3.459c0.757,1.085 1.847,3.332 2.423,4.994c0.97,2.8 1.046,3.477 1.038,9.251c-0.008,5.678 -0.098,6.491 -1.014,9.155c-0.553,1.609 -1.555,3.755 -2.227,4.77c-0.671,1.015 -2.179,2.725 -3.351,3.799c-1.171,1.074 -3.105,2.387 -4.299,2.916c-1.193,0.53 -3.345,1.14 -4.781,1.356c-1.437,0.215 -3.63,0.268 -4.875,0.118c-1.352,-0.164 -3.266,-0.782 -4.759,-1.537l-2.498,-1.262l0,18.77l-1.026,0.782c-0.881,0.672 -1.57,0.783 -4.885,0.783c-3.578,-0 -3.929,-0.068 -4.815,-0.927Zm20.656,-25.548c0.962,-0.256 2.17,-1.031 3.159,-2.027c0.881,-0.887 1.907,-2.441 2.28,-3.454c0.389,-1.056 0.765,-3.489 0.883,-5.71c0.125,-2.362 0.019,-4.785 -0.272,-6.221c-0.263,-1.294 -0.831,-3.036 -1.263,-3.872c-0.433,-0.836 -1.161,-1.917 -1.619,-2.402c-0.457,-0.486 -1.423,-1.123 -2.145,-1.416c-0.722,-0.294 -2.036,-0.521 -2.92,-0.505c-0.884,0.016 -2.14,0.228 -2.79,0.472c-0.65,0.244 -1.533,0.698 -1.963,1.01c-0.429,0.311 -1.165,1.098 -1.635,1.749c-0.469,0.65 -1.117,2.265 -1.438,3.587c-0.322,1.323 -0.584,3.764 -0.583,5.426c0.001,1.661 0.174,4.175 0.385,5.586c0.21,1.411 0.732,3.231 1.161,4.045c0.428,0.814 1.168,1.832 1.645,2.263c0.477,0.43 1.659,1.02 2.628,1.309c0.969,0.29 2.024,0.538 2.345,0.551c0.321,0.013 1.285,-0.162 2.142,-0.391Zm-51.809,8.602c-1.081,-0.268 -3.114,-1.009 -4.517,-1.645c-1.589,-0.722 -3.427,-1.993 -4.877,-3.376c-1.437,-1.369 -2.749,-3.085 -3.429,-4.483c-0.605,-1.246 -1.332,-3.112 -1.614,-4.146c-0.282,-1.034 -0.619,-3.498 -0.748,-5.475c-0.162,-2.477 -0.053,-4.576 0.353,-6.749c0.337,-1.806 1.176,-4.353 1.965,-5.964c0.848,-1.733 2.208,-3.657 3.544,-5.015c1.193,-1.212 3.185,-2.73 4.428,-3.372c1.243,-0.643 3.383,-1.425 4.755,-1.739c1.372,-0.313 3.825,-0.573 5.451,-0.576c1.668,-0.003 4.24,0.313 5.906,0.727c1.624,0.402 3.711,1.107 4.638,1.566c0.928,0.459 2.834,1.956 4.237,3.327c1.539,1.506 2.958,3.341 3.581,4.634c0.568,1.177 1.336,3.131 1.707,4.342c0.479,1.566 0.671,3.512 0.664,6.734c-0.006,3.078 -0.225,5.309 -0.682,6.956c-0.37,1.333 -1.169,3.379 -1.777,4.546c-0.607,1.167 -1.895,2.975 -2.862,4.018c-0.966,1.042 -2.466,2.371 -3.331,2.953c-0.866,0.582 -2.764,1.483 -4.217,2.002c-2.067,0.738 -3.575,0.974 -6.926,1.083c-2.697,0.088 -5.011,-0.041 -6.249,-0.348Zm9.417,-8.81c0.844,-0.419 2.049,-1.524 2.744,-2.518c0.681,-0.974 1.459,-2.746 1.728,-3.938c0.27,-1.193 0.472,-3.867 0.449,-5.944c-0.03,-2.713 -0.275,-4.498 -0.873,-6.339c-0.603,-1.86 -1.279,-3.013 -2.466,-4.208c-1.019,-1.027 -2.221,-1.803 -3.192,-2.062c-0.857,-0.228 -1.996,-0.415 -2.532,-0.415c-0.535,0 -1.641,0.18 -2.458,0.4c-0.844,0.228 -2.133,1.048 -2.987,1.901c-0.964,0.964 -1.797,2.342 -2.324,3.847c-0.462,1.317 -0.919,3.834 -1.044,5.743c-0.155,2.384 -0.039,4.228 0.39,6.178c0.336,1.528 1.063,3.526 1.615,4.439c0.552,0.914 1.435,1.935 1.963,2.27c0.527,0.335 1.614,0.846 2.415,1.134c0.801,0.289 2.269,0.465 3.262,0.392c0.992,-0.073 2.482,-0.469 3.31,-0.88Zm104.247,8.563c-1.532,-0.389 -3.544,-1.083 -4.47,-1.542c-0.927,-0.458 -2.764,-1.838 -4.083,-3.066c-1.512,-1.408 -2.841,-3.105 -3.596,-4.594c-0.66,-1.298 -1.465,-3.456 -1.791,-4.795c-0.34,-1.399 -0.594,-4.216 -0.597,-6.622c-0.004,-2.957 0.221,-5.05 0.767,-7.119c0.425,-1.613 1.337,-3.891 2.027,-5.064c0.689,-1.173 2.137,-2.984 3.218,-4.025c1.081,-1.041 3.032,-2.439 4.337,-3.106c1.305,-0.667 3.496,-1.47 4.868,-1.784c1.372,-0.313 3.809,-0.57 5.415,-0.57c1.607,-0 4.043,0.257 5.416,0.57c1.372,0.314 3.557,1.119 4.855,1.788c1.299,0.67 3.286,2.129 4.417,3.242c1.193,1.174 2.631,3.156 3.426,4.72c0.797,1.57 1.631,4.037 1.995,5.906c0.44,2.255 0.56,4.282 0.404,6.812c-0.137,2.237 -0.583,4.706 -1.174,6.512c-0.524,1.6 -1.514,3.757 -2.201,4.795c-0.686,1.037 -2.162,2.695 -3.279,3.684c-1.117,0.989 -2.989,2.266 -4.158,2.838c-1.169,0.572 -3.349,1.292 -4.843,1.599c-1.494,0.306 -3.943,0.551 -5.442,0.543c-1.499,-0.008 -3.979,-0.333 -5.511,-0.722Zm8.86,-8.001c0.728,-0.243 1.789,-0.773 2.358,-1.177c0.569,-0.404 1.47,-1.522 2.002,-2.484c0.533,-0.962 1.162,-2.649 1.4,-3.75c0.237,-1.1 0.431,-3.361 0.431,-5.023c0,-1.662 -0.268,-4.16 -0.595,-5.551c-0.328,-1.391 -0.986,-3.202 -1.464,-4.024c-0.477,-0.822 -1.591,-1.988 -2.475,-2.591c-0.947,-0.645 -2.308,-1.172 -3.311,-1.281c-0.937,-0.103 -2.49,0.018 -3.451,0.267c-1.183,0.307 -2.269,0.978 -3.359,2.077c-0.957,0.965 -1.905,2.445 -2.336,3.645c-0.579,1.61 -0.723,3.097 -0.712,7.308c0.013,4.548 0.135,5.579 0.876,7.382c0.473,1.153 1.452,2.653 2.175,3.333c0.724,0.68 1.994,1.471 2.824,1.757c0.83,0.287 2.14,0.529 2.912,0.539c0.771,0.009 1.997,-0.183 2.725,-0.427Zm36.316,8.187c-1.314,-0.278 -3.417,-0.983 -4.673,-1.568c-1.36,-0.634 -3.317,-2.059 -4.843,-3.526c-1.578,-1.517 -2.959,-3.283 -3.6,-4.604c-0.571,-1.179 -1.3,-3.218 -1.619,-4.532c-0.32,-1.313 -0.583,-4.118 -0.587,-6.234c-0.003,-2.115 0.262,-5.075 0.588,-6.579c0.326,-1.503 1.158,-3.851 1.849,-5.217c0.771,-1.524 2.176,-3.378 3.639,-4.8c1.519,-1.478 3.282,-2.728 4.867,-3.453c1.368,-0.625 3.415,-1.324 4.55,-1.554c1.135,-0.229 3.325,-0.415 4.867,-0.412c1.542,0.003 3.927,0.263 5.299,0.576c1.372,0.314 3.558,1.119 4.857,1.788c1.298,0.67 3.242,2.073 4.319,3.117c1.077,1.044 2.532,2.945 3.233,4.224c0.702,1.279 1.621,3.638 2.045,5.242c0.493,1.871 0.766,4.147 0.762,6.349c-0.004,1.888 -0.263,4.607 -0.577,6.043c-0.314,1.435 -1.095,3.697 -1.736,5.026c-0.714,1.479 -2.107,3.367 -3.591,4.865c-1.624,1.641 -3.234,2.823 -4.878,3.584c-1.35,0.625 -3.636,1.379 -5.081,1.676c-1.445,0.297 -3.678,0.529 -4.963,0.516c-1.285,-0.013 -3.412,-0.25 -4.727,-0.527Zm7.68,-8.124c0.768,-0.207 2.036,-0.996 2.818,-1.754c0.781,-0.759 1.81,-2.33 2.285,-3.493c0.747,-1.829 0.864,-2.827 0.864,-7.4c-0,-4.661 -0.109,-5.555 -0.918,-7.553c-0.505,-1.246 -1.554,-2.886 -2.332,-3.645c-0.862,-0.841 -2.092,-1.557 -3.149,-1.833c-0.954,-0.249 -2.518,-0.348 -3.478,-0.221c-0.959,0.128 -2.396,0.651 -3.195,1.163c-0.798,0.513 -1.892,1.66 -2.429,2.55c-0.538,0.891 -1.246,2.721 -1.574,4.068c-0.327,1.347 -0.598,3.816 -0.601,5.486c-0.003,1.669 0.263,4.048 0.592,5.286c0.328,1.238 1.076,3.008 1.661,3.933c0.747,1.182 1.683,1.997 3.146,2.738c1.173,0.594 2.702,1.054 3.499,1.053c0.778,-0.001 2.044,-0.171 2.811,-0.378Zm32.474,7.63c-1.075,-0.361 -2.53,-1.053 -3.234,-1.539c-0.703,-0.486 -1.709,-1.544 -2.235,-2.352c-0.526,-0.808 -1.215,-2.531 -1.53,-3.83c-0.437,-1.795 -0.576,-5.01 -0.58,-13.406l-0.006,-11.045l-1.704,-0c-0.937,-0 -2.218,-0.1 -2.848,-0.222c-0.629,-0.122 -1.352,-0.544 -1.605,-0.937c-0.253,-0.393 -0.48,-2.001 -0.504,-3.573c-0.035,-2.244 0.103,-3.016 0.643,-3.594c0.552,-0.592 1.204,-0.737 3.318,-0.737l2.631,0l0.132,-4.124c0.121,-3.783 0.212,-4.209 1.105,-5.148c0.536,-0.563 1.675,-1.337 2.531,-1.72c0.881,-0.394 2.455,-0.701 3.62,-0.706c1.677,-0.006 2.241,0.165 3.018,0.919c0.917,0.889 0.956,1.126 0.956,5.853l-0,4.926l4.456,0c4.106,0 4.539,0.069 5.511,0.88c0.846,0.705 1.09,1.289 1.231,2.938c0.116,1.355 -0.03,2.537 -0.429,3.462l-0.605,1.405l-3.038,0.067c-1.671,0.037 -3.388,0.044 -3.816,0.016c-0.429,-0.029 -1.349,0.034 -2.045,0.138l-1.265,0.191l0.022,9.895c0.014,6.644 0.174,10.318 0.486,11.182c0.256,0.707 0.958,1.64 1.56,2.074c0.941,0.676 1.582,0.776 4.541,0.71c2.61,-0.058 3.558,0.056 3.914,0.472c0.258,0.301 0.56,1.645 0.671,2.985c0.191,2.316 0.144,2.493 -0.952,3.555c-0.634,0.615 -1.84,1.304 -2.68,1.53c-0.84,0.226 -3.279,0.406 -5.421,0.401c-2.662,-0.007 -4.512,-0.218 -5.849,-0.666l0,-0Zm-293.02,-0.758l-0.969,-0.761l-0,-53.67l2.165,-2.094l11.378,0.029c8.998,0.024 12.035,0.161 14.515,0.658c1.726,0.345 4.252,1.067 5.614,1.603c1.362,0.537 3.437,1.572 4.611,2.3c1.174,0.728 3.058,2.22 4.187,3.315c1.129,1.095 2.702,2.974 3.495,4.177c0.793,1.202 1.931,3.486 2.53,5.076c0.598,1.59 1.303,4.317 1.566,6.061c0.296,1.968 0.39,4.864 0.246,7.639c-0.192,3.701 -0.455,5.102 -1.528,8.141c-0.713,2.019 -1.966,4.65 -2.786,5.847c-0.819,1.197 -2.507,3.151 -3.75,4.343c-1.243,1.191 -3.234,2.736 -4.425,3.433c-1.191,0.696 -3.233,1.684 -4.538,2.196c-1.305,0.511 -3.544,1.192 -4.976,1.514c-1.925,0.433 -5.701,0.633 -14.485,0.77c-11.479,0.177 -11.914,0.158 -12.85,-0.577Zm24.328,-9.714c1.261,-0.318 3.142,-1.027 4.18,-1.575c1.039,-0.549 2.685,-1.823 3.658,-2.832c0.974,-1.009 2.19,-2.724 2.703,-3.809c0.512,-1.086 1.201,-3.216 1.53,-4.733c0.329,-1.517 0.595,-4.065 0.592,-5.661c-0.004,-1.596 -0.261,-4.063 -0.571,-5.482c-0.31,-1.42 -0.984,-3.459 -1.496,-4.532c-0.513,-1.072 -1.643,-2.725 -2.512,-3.671c-0.907,-0.988 -2.63,-2.234 -4.046,-2.926c-1.357,-0.663 -3.41,-1.375 -4.564,-1.583c-1.154,-0.208 -4.439,-0.378 -7.301,-0.378l-5.204,-0l-0,37.761l5.37,-0c3.568,-0 6.138,-0.194 7.661,-0.579Zm29.803,9.642c-0.758,-0.736 -0.779,-1.259 -0.779,-19.798l0,-19.042l1.026,-0.782c0.88,-0.671 1.571,-0.783 4.846,-0.783c3.505,0 3.869,0.069 4.425,0.839c0.334,0.462 0.606,1.493 0.606,2.291l0,1.452l1.85,-1.832c1.017,-1.007 2.551,-2.158 3.407,-2.558c0.919,-0.429 2.679,-0.787 4.291,-0.874c2.291,-0.123 2.888,-0.026 3.69,0.604c0.83,0.652 0.974,1.119 1.089,3.53c0.074,1.528 -0.017,3.458 -0.201,4.289l-0.335,1.511l-3.705,0.235c-2.317,0.148 -4.207,0.483 -5.045,0.894c-0.738,0.362 -1.751,1.021 -2.251,1.464c-0.501,0.443 -1.158,1.378 -1.461,2.078c-0.434,1.007 -0.55,3.788 -0.55,13.26c0,11.555 -0.029,12.023 -0.807,12.982c-0.784,0.966 -0.929,0.995 -5.062,0.995c-3.736,-0 -4.35,-0.092 -5.034,-0.755Zm114.181,0.167l-0.865,-0.588l-0,-38.342l0.901,-0.821c0.803,-0.731 1.332,-0.821 4.845,-0.821c3.635,0 3.992,0.066 4.551,0.839c0.333,0.462 0.606,1.473 0.606,2.248l-0,1.408l1.849,-1.786c1.018,-0.983 2.545,-2.105 3.394,-2.493c0.849,-0.388 2.699,-0.786 4.11,-0.884c2.324,-0.161 2.674,-0.088 3.713,0.779c1.117,0.932 1.147,1.047 1.147,4.482c-0,1.939 -0.126,3.823 -0.28,4.187c-0.23,0.543 -0.782,0.661 -3.115,0.662c-1.56,0.002 -3.536,0.188 -4.393,0.415c-0.857,0.227 -2.129,0.831 -2.827,1.342c-0.698,0.51 -1.662,1.641 -2.142,2.511c-0.839,1.524 -0.879,2.049 -1.067,13.981c-0.184,11.719 -0.236,12.427 -0.95,12.933c-0.534,0.379 -1.909,0.536 -4.684,0.536c-2.924,-0 -4.149,-0.15 -4.793,-0.588Zm-15.663,-65.991c0,-1.52 -0.187,-3.771 -0.416,-5.004c-0.229,-1.232 -1.092,-3.606 -1.918,-5.276c-0.826,-1.669 -2.185,-3.782 -3.021,-4.695l-1.519,-1.659l-2.147,3.373c-1.181,1.855 -2.357,3.756 -2.612,4.223c-0.256,0.467 -0.635,0.85 -0.841,0.85c-0.207,-0 -0.376,-0.39 -0.376,-0.865c0,-0.476 0.266,-1.878 0.59,-3.115c0.325,-1.238 1.226,-3.526 2.002,-5.083c0.777,-1.558 2.375,-4.277 3.552,-6.042c1.176,-1.765 3.355,-4.774 4.843,-6.686c1.88,-2.418 2.869,-4.085 3.246,-5.472c0.393,-1.444 0.553,-4.735 0.578,-11.931c0.028,-8.254 0.128,-9.973 0.592,-10.145c0.306,-0.114 1.128,0.278 1.825,0.87c0.698,0.593 4.445,4.307 8.327,8.253c3.883,3.946 8.983,9.299 11.334,11.895c2.352,2.596 5.136,5.419 6.189,6.273c1.052,0.855 2.901,2.167 4.108,2.916c1.208,0.75 3.189,1.788 4.402,2.309c1.235,0.529 2.098,1.116 1.96,1.332c-0.143,0.225 -2.007,0.386 -4.457,0.386c-2.749,0 -4.787,-0.197 -5.867,-0.566c-0.911,-0.312 -1.721,-0.567 -1.802,-0.567c-0.08,0 -0.145,2.719 -0.145,6.042c-0,3.323 -0.134,6.042 -0.298,6.042c-0.164,-0 -0.572,-0.637 -0.907,-1.416c-0.335,-0.779 -1.472,-3.792 -2.525,-6.696c-1.054,-2.904 -2.618,-6.631 -3.474,-8.281c-0.857,-1.651 -2.042,-3.346 -2.634,-3.766c-0.911,-0.647 -1.832,-0.789 -6.005,-0.924l-4.928,-0.159l1.383,1.653c0.761,0.909 1.919,2.633 2.573,3.832c0.654,1.199 1.486,3.472 1.848,5.053c0.471,2.05 0.603,3.858 0.463,6.316c-0.112,1.968 -0.486,4.132 -0.872,5.049c-0.371,0.882 -0.805,1.604 -0.965,1.604c-0.16,0 -0.39,-1.15 -0.512,-2.557c-0.121,-1.406 -0.665,-3.702 -1.208,-5.101c-0.544,-1.4 -1.501,-3.265 -2.128,-4.146c-0.626,-0.88 -1.947,-2.44 -2.935,-3.466l-1.796,-1.866l-2.824,2.96c-1.553,1.628 -2.88,3.097 -2.948,3.264c-0.068,0.167 0.329,0.949 0.883,1.738c0.554,0.788 1.515,2.708 2.135,4.266c0.619,1.557 1.348,4.237 1.618,5.955c0.382,2.42 0.392,3.75 0.045,5.914c-0.246,1.535 -0.734,3.486 -1.085,4.335c-0.35,0.849 -0.793,1.543 -0.984,1.543c-0.19,0 -0.347,-1.243 -0.347,-2.762Zm-24.532,-18.903c0,-2.778 -0.11,-5.585 -0.245,-6.238l-0.245,-1.188l-1.301,0.962c-0.716,0.53 -2.392,1.463 -3.725,2.074c-1.332,0.611 -3.354,1.313 -4.491,1.56c-1.138,0.247 -2.179,0.343 -2.313,0.213c-0.135,-0.131 1.515,-1.859 3.664,-3.842c2.215,-2.041 5.735,-5.918 8.12,-8.943c2.316,-2.936 5.695,-6.97 7.507,-8.964c1.813,-1.994 5.161,-5.579 7.44,-7.967c2.279,-2.389 4.556,-4.81 5.061,-5.381c0.504,-0.571 1.061,-1.039 1.237,-1.039c0.175,0 0.319,5.247 0.319,11.66c-0,8.877 -0.116,11.749 -0.487,12.034c-0.268,0.206 -3.229,0.466 -6.581,0.579c-3.352,0.113 -6.458,0.394 -6.903,0.625c-0.445,0.231 -0.989,0.746 -1.209,1.145c-0.22,0.399 -0.846,2.901 -1.391,5.561c-0.545,2.66 -1.27,5.771 -1.611,6.913c-0.342,1.142 -0.94,2.799 -1.33,3.682c-0.39,0.882 -0.891,1.604 -1.113,1.604c-0.258,0 -0.403,-1.819 -0.403,-5.05Zm-19.081,-17.875c0,-0.212 1.388,-1.167 3.085,-2.123c1.696,-0.955 3.217,-1.945 3.379,-2.2c0.166,-0.261 0.079,-0.531 -0.202,-0.622c-0.273,-0.088 -1.749,-1.166 -3.281,-2.395c-1.532,-1.229 -4.157,-3.716 -5.834,-5.526c-1.676,-1.81 -4.084,-4.805 -5.35,-6.656c-1.266,-1.85 -3.081,-4.908 -4.034,-6.797c-0.953,-1.888 -2.27,-4.989 -2.927,-6.891c-0.656,-1.903 -1.57,-5.131 -2.031,-7.175c-0.666,-2.956 -0.845,-5.066 -0.874,-10.324c-0.023,-3.971 0.168,-7.738 0.478,-9.44c0.283,-1.558 1.022,-4.715 1.642,-7.016c0.62,-2.3 2.012,-6.327 3.094,-8.947c1.082,-2.62 3.073,-6.769 4.425,-9.222c1.352,-2.452 3.301,-5.732 4.332,-7.29c1.03,-1.558 3.105,-4.531 4.609,-6.608c1.505,-2.077 4.322,-5.646 6.262,-7.93c1.94,-2.285 6.257,-7.382 9.595,-11.328c3.338,-3.947 7.743,-9.299 9.789,-11.895c2.046,-2.596 5.022,-6.505 6.613,-8.685c1.592,-2.181 3.923,-5.547 5.181,-7.48c1.259,-1.934 2.721,-3.846 3.249,-4.249c0.528,-0.403 1.518,-0.733 2.198,-0.733c0.85,0 1.549,0.326 2.231,1.039c0.546,0.571 2.014,2.568 3.262,4.437c1.248,1.869 4.189,5.947 6.535,9.063c2.347,3.115 6.586,8.467 9.42,11.894c2.834,3.427 7.589,9.035 10.568,12.462c2.978,3.426 6.857,8.073 8.62,10.325c1.763,2.253 4.314,5.736 5.671,7.742c1.356,2.005 3.536,5.517 4.844,7.805c1.308,2.288 2.988,5.438 3.732,7c0.744,1.562 2.156,5.114 3.138,7.893c0.981,2.779 2.123,6.681 2.536,8.671c0.413,1.99 0.936,5.596 1.163,8.014c0.283,3.01 0.29,5.568 0.021,8.118c-0.215,2.048 -0.673,5.078 -1.018,6.734c-0.345,1.656 -1.226,4.681 -1.959,6.723c-0.733,2.042 -2.002,5.105 -2.821,6.807c-0.819,1.702 -2.763,4.959 -4.32,7.238c-1.909,2.791 -4.245,5.515 -7.163,8.351c-2.382,2.314 -5.064,4.714 -5.96,5.333l-1.629,1.124l1.767,1.098c0.972,0.604 2.66,1.522 3.751,2.042c1.091,0.519 2.051,1.156 2.133,1.416c0.112,0.351 -0.676,0.47 -3.095,0.464c-1.785,-0.004 -4.371,-0.165 -5.747,-0.358c-1.376,-0.193 -3.617,-0.883 -4.98,-1.534c-1.363,-0.651 -3.422,-2.076 -4.575,-3.168c-1.153,-1.092 -2.8,-3.065 -3.661,-4.384c-0.86,-1.32 -1.476,-2.537 -1.37,-2.704c0.107,-0.168 1.28,-0.319 2.606,-0.336c1.326,-0.017 3.198,-0.229 4.159,-0.472c1.094,-0.276 1.796,-0.681 1.874,-1.081c0.079,-0.401 -0.318,-0.861 -1.07,-1.238c-0.657,-0.33 -3.292,-1.014 -5.856,-1.52c-2.563,-0.506 -6.022,-1.36 -7.687,-1.898c-1.666,-0.537 -3.966,-1.52 -5.113,-2.183c-1.146,-0.664 -3.015,-2.178 -4.153,-3.365c-1.269,-1.325 -2.371,-2.942 -2.852,-4.189c-0.431,-1.118 -0.987,-3.12 -1.237,-4.45c-0.249,-1.331 -0.343,-3.269 -0.208,-4.307c0.135,-1.039 0.436,-2.483 0.668,-3.21c0.233,-0.727 0.857,-1.885 1.387,-2.573c0.53,-0.688 1.516,-1.485 2.191,-1.772c0.675,-0.286 2.88,-0.962 4.901,-1.502c2.021,-0.539 4.674,-1.569 5.896,-2.289c1.222,-0.72 3.269,-2.394 4.548,-3.72c1.279,-1.327 2.882,-3.355 3.562,-4.507c0.68,-1.152 1.647,-3.266 2.15,-4.698c0.502,-1.432 1.041,-3.338 1.197,-4.236l0.284,-1.632l-3.319,0.228c-1.977,0.135 -4.553,0.628 -6.369,1.219c-1.677,0.546 -4.069,1.594 -5.316,2.329c-1.247,0.734 -3.159,2.199 -4.248,3.256c-1.089,1.056 -2.627,2.891 -3.418,4.077c-0.791,1.187 -1.66,2.677 -1.931,3.311c-0.421,0.987 -0.571,1.078 -1.035,0.628c-0.433,-0.42 -0.543,-2.313 -0.543,-9.371c0,-5.483 0.164,-9.299 0.431,-10.041c0.236,-0.659 0.76,-1.369 1.163,-1.578c0.404,-0.209 1.857,-0.717 3.23,-1.128c1.374,-0.412 3.61,-1.469 4.97,-2.349c1.36,-0.881 3.48,-2.593 4.711,-3.805c1.556,-1.533 2.775,-3.261 3.994,-5.665c1.054,-2.077 2.007,-4.668 2.387,-6.481c0.445,-2.13 0.562,-3.968 0.398,-6.231c-0.129,-1.765 -0.347,-3.592 -0.485,-4.059c-0.202,-0.682 -0.533,-0.85 -1.674,-0.85c-0.782,0 -2.705,0.345 -4.272,0.766c-1.568,0.421 -3.755,1.206 -4.86,1.744c-1.105,0.539 -3.097,1.727 -4.427,2.641c-1.329,0.913 -3.179,2.635 -4.111,3.825c-0.932,1.19 -2.145,2.928 -2.695,3.863c-0.551,0.935 -1.471,2.968 -2.044,4.519c-0.574,1.551 -1.295,4.44 -1.603,6.42c-0.308,1.979 -0.561,5.065 -0.562,6.856c-0.001,1.791 -0.112,3.788 -0.246,4.437c-0.133,0.649 -0.401,1.18 -0.594,1.18c-0.192,0 -0.942,-1.259 -1.665,-2.798c-0.723,-1.539 -2.01,-3.711 -2.86,-4.826c-0.849,-1.115 -2.508,-2.882 -3.687,-3.926c-1.178,-1.045 -3.348,-2.51 -4.821,-3.256c-1.473,-0.746 -3.905,-1.727 -5.405,-2.179c-1.596,-0.481 -4.324,-0.912 -6.582,-1.039l-3.857,-0.218l0.265,2.504c0.146,1.378 0.606,3.57 1.023,4.873c0.417,1.303 1.42,3.473 2.229,4.823c0.809,1.35 2.558,3.494 3.887,4.764c1.522,1.454 3.581,2.897 5.56,3.895c1.728,0.872 4.825,1.999 6.881,2.505c2.057,0.506 4.164,0.92 4.682,0.92c0.519,-0 1.474,0.266 2.123,0.591c0.655,0.329 1.425,1.162 1.733,1.876c0.442,1.028 0.553,3.951 0.553,14.634c-0,11.081 -0.105,13.69 -0.617,15.363c-0.339,1.108 -1.021,2.626 -1.515,3.373c-0.494,0.746 -1.487,1.89 -2.206,2.54c-0.72,0.651 -2.009,1.601 -2.866,2.112c-0.857,0.512 -2.609,1.312 -3.894,1.778c-1.285,0.467 -4.911,1.418 -8.058,2.115c-3.147,0.697 -6.257,1.536 -6.912,1.864c-0.655,0.329 -1.19,0.831 -1.19,1.117c-0,0.286 0.569,0.721 1.265,0.967c0.697,0.246 3.15,0.541 5.452,0.657c2.302,0.115 4.186,0.291 4.186,0.39c0,0.099 -0.619,1.168 -1.375,2.375c-0.756,1.207 -2.202,2.992 -3.212,3.967c-1.011,0.975 -2.737,2.357 -3.835,3.07c-1.099,0.714 -2.851,1.549 -3.894,1.856c-1.044,0.307 -3.868,0.662 -6.278,0.789c-2.869,0.152 -4.381,0.099 -4.381,-0.152Z" style="fill:#fff;fill-rule:nonzero;"/></g><clipPath id="_clip2"><rect id="path21" serif:id="path2" x="156.142" y="55.986" width="523.32" height="144.19"/></clipPath><g clip-path="url(#_clip2)"><path d="M371.555,193.472l-1.515,-1.716l0,-51.653c0,-51.198 0.012,-51.67 1.279,-53.495c1.233,-1.776 1.504,-1.841 7.616,-1.841c5.255,-0 6.503,0.209 7.306,1.223c0.533,0.672 1.159,2.386 1.392,3.808l0.424,2.585l2.193,-2.412c1.206,-1.327 3.746,-3.277 5.644,-4.333c3.065,-1.705 4.14,-1.92 9.62,-1.92c4.346,0 7.171,0.38 9.562,1.285c1.866,0.707 4.848,2.523 6.626,4.036c1.778,1.513 4.214,4.395 5.413,6.403c1.199,2.008 2.926,6.167 3.839,9.242c1.537,5.182 1.657,6.435 1.644,17.122c-0.013,10.508 -0.156,12.012 -1.607,16.944c-0.876,2.976 -2.463,6.949 -3.527,8.828c-1.064,1.878 -3.453,5.042 -5.309,7.03c-1.856,1.988 -4.921,4.417 -6.811,5.398c-1.891,0.98 -5.3,2.109 -7.576,2.508c-2.276,0.399 -5.751,0.497 -7.722,0.218c-2.142,-0.303 -5.176,-1.447 -7.541,-2.843l-3.957,-2.337l0,34.738l-1.625,1.449c-1.397,1.244 -2.489,1.448 -7.74,1.448c-5.669,0 -6.224,-0.125 -7.628,-1.715Zm32.725,-47.282c1.524,-0.475 3.437,-1.909 5.005,-3.753c1.396,-1.641 3.021,-4.517 3.612,-6.391c0.616,-1.955 1.212,-6.458 1.399,-10.568c0.198,-4.371 0.03,-8.856 -0.431,-11.514c-0.416,-2.394 -1.317,-5.619 -2.002,-7.166c-0.684,-1.547 -1.838,-3.548 -2.563,-4.446c-0.725,-0.898 -2.255,-2.078 -3.399,-2.621c-1.144,-0.543 -3.226,-0.963 -4.627,-0.934c-1.401,0.029 -3.389,0.422 -4.419,0.874c-1.03,0.451 -2.43,1.292 -3.11,1.868c-0.681,0.577 -1.846,2.034 -2.59,3.238c-0.745,1.203 -1.77,4.191 -2.279,6.639c-0.51,2.447 -0.925,6.966 -0.923,10.041c0.001,3.075 0.275,7.728 0.609,10.339c0.333,2.612 1.161,5.98 1.839,7.486c0.678,1.506 1.851,3.39 2.606,4.188c0.756,0.797 2.629,1.888 4.164,2.424c1.535,0.536 3.207,0.994 3.716,1.019c0.509,0.025 2.036,-0.301 3.393,-0.723Zm-82.081,15.919c-1.713,-0.496 -4.933,-1.866 -7.156,-3.045c-2.518,-1.335 -5.43,-3.688 -7.728,-6.246c-2.276,-2.534 -4.354,-5.71 -5.431,-8.298c-0.96,-2.307 -2.11,-5.76 -2.557,-7.674c-0.448,-1.914 -0.981,-6.474 -1.186,-10.133c-0.257,-4.584 -0.083,-8.469 0.559,-12.489c0.534,-3.344 1.863,-8.057 3.113,-11.039c1.345,-3.206 3.499,-6.768 5.616,-9.282c1.889,-2.243 5.046,-5.052 7.015,-6.241c1.969,-1.189 5.359,-2.636 7.533,-3.217c2.174,-0.58 6.06,-1.06 8.635,-1.066c2.644,-0.006 6.718,0.58 9.359,1.345c2.571,0.745 5.878,2.049 7.347,2.898c1.47,0.849 4.49,3.62 6.712,6.158c2.439,2.786 4.687,6.184 5.675,8.576c0.899,2.178 2.115,5.795 2.703,8.037c0.76,2.898 1.064,6.499 1.053,12.462c-0.01,5.696 -0.357,9.826 -1.081,12.873c-0.586,2.468 -1.852,6.254 -2.815,8.414c-0.963,2.16 -3.003,5.506 -4.534,7.436c-1.532,1.929 -3.907,4.389 -5.279,5.466c-1.371,1.076 -4.378,2.744 -6.68,3.704c-3.275,1.367 -5.665,1.804 -10.973,2.006c-4.273,0.163 -7.939,-0.076 -9.9,-0.645Zm14.919,-16.305c1.338,-0.775 3.246,-2.821 4.347,-4.66c1.079,-1.803 2.312,-5.083 2.739,-7.289c0.427,-2.206 0.747,-7.156 0.711,-11c-0.047,-5.021 -0.437,-8.324 -1.383,-11.731c-0.956,-3.443 -2.027,-5.578 -3.907,-7.79c-1.615,-1.899 -3.52,-3.336 -5.058,-3.814c-1.357,-0.423 -3.162,-0.768 -4.01,-0.768c-0.848,-0 -2.601,0.333 -3.895,0.74c-1.338,0.421 -3.38,1.939 -4.733,3.518c-1.527,1.783 -2.847,4.333 -3.682,7.118c-0.731,2.438 -1.455,7.097 -1.653,10.63c-0.246,4.412 -0.061,7.826 0.618,11.433c0.532,2.829 1.684,6.526 2.558,8.217c0.875,1.69 2.274,3.581 3.11,4.201c0.835,0.62 2.557,1.565 3.827,2.099c1.269,0.534 3.594,0.86 5.167,0.724c1.572,-0.135 3.932,-0.868 5.244,-1.628Zm165.159,15.848c-2.427,-0.721 -5.614,-2.005 -7.082,-2.853c-1.468,-0.849 -4.379,-3.402 -6.469,-5.675c-2.395,-2.606 -4.5,-5.747 -5.697,-8.502c-1.045,-2.403 -2.321,-6.397 -2.837,-8.875c-0.538,-2.589 -0.941,-7.803 -0.946,-12.256c-0.007,-5.473 0.351,-9.345 1.215,-13.176c0.674,-2.983 2.119,-7.201 3.211,-9.371c1.092,-2.171 3.386,-5.523 5.098,-7.45c1.713,-1.926 4.805,-4.513 6.873,-5.748c2.067,-1.235 5.537,-2.72 7.711,-3.301c2.174,-0.58 6.035,-1.055 8.58,-1.055c2.545,-0 6.405,0.475 8.579,1.055c2.174,0.581 5.636,2.07 7.693,3.309c2.057,1.24 5.206,3.94 6.998,6c1.889,2.172 4.169,5.841 5.427,8.736c1.264,2.905 2.584,7.471 3.161,10.93c0.697,4.173 0.887,7.924 0.64,12.608c-0.217,4.139 -0.923,8.708 -1.86,12.051c-0.83,2.961 -2.399,6.954 -3.486,8.874c-1.088,1.919 -3.426,4.987 -5.196,6.818c-1.77,1.83 -4.735,4.194 -6.587,5.253c-1.853,1.059 -5.306,2.391 -7.673,2.958c-2.367,0.568 -6.246,1.021 -8.622,1.007c-2.375,-0.015 -6.304,-0.616 -8.731,-1.337Zm14.037,-14.807c1.154,-0.45 2.835,-1.431 3.736,-2.179c0.901,-0.748 2.328,-2.816 3.172,-4.597c0.843,-1.78 1.841,-4.904 2.217,-6.94c0.376,-2.037 0.684,-6.221 0.684,-9.297c0,-3.076 -0.425,-7.7 -0.944,-10.274c-0.519,-2.574 -1.562,-5.925 -2.318,-7.447c-0.757,-1.521 -2.522,-3.679 -3.922,-4.794c-1.501,-1.195 -3.656,-2.17 -5.245,-2.373c-1.484,-0.189 -3.945,0.034 -5.468,0.495c-1.874,0.568 -3.595,1.811 -5.322,3.845c-1.516,1.786 -3.018,4.524 -3.701,6.746c-0.916,2.978 -1.145,5.731 -1.127,13.524c0.02,8.418 0.214,10.325 1.387,13.663c0.75,2.134 2.301,4.91 3.447,6.168c1.145,1.258 3.159,2.722 4.474,3.253c1.315,0.531 3.39,0.979 4.612,0.996c1.222,0.017 3.165,-0.338 4.318,-0.789Zm57.536,15.15c-2.083,-0.513 -5.414,-1.819 -7.403,-2.901c-2.155,-1.174 -5.256,-3.811 -7.674,-6.525c-2.5,-2.807 -4.688,-6.077 -5.703,-8.522c-0.905,-2.182 -2.06,-5.956 -2.566,-8.386c-0.506,-2.431 -0.924,-7.623 -0.929,-11.538c-0.005,-3.914 0.414,-9.394 0.931,-12.176c0.516,-2.783 1.835,-7.127 2.93,-9.655c1.222,-2.821 3.448,-6.252 5.764,-8.884c2.408,-2.736 5.2,-5.049 7.712,-6.391c2.166,-1.157 5.41,-2.451 7.208,-2.876c1.798,-0.424 5.268,-0.767 7.711,-0.762c2.444,0.006 6.221,0.486 8.395,1.066c2.174,0.581 5.637,2.07 7.694,3.309c2.058,1.24 5.138,3.835 6.844,5.768c1.706,1.933 4.011,5.451 5.122,7.818c1.111,2.367 2.569,6.732 3.239,9.701c0.782,3.463 1.215,7.675 1.208,11.751c-0.006,3.494 -0.417,8.526 -0.914,11.183c-0.497,2.657 -1.735,6.844 -2.751,9.304c-1.131,2.737 -3.338,6.231 -5.688,9.003c-2.574,3.036 -5.124,5.224 -7.729,6.633c-2.138,1.156 -5.761,2.552 -8.05,3.101c-2.289,0.55 -5.827,0.98 -7.863,0.956c-2.036,-0.024 -5.405,-0.463 -7.488,-0.977Zm12.167,-15.034c1.217,-0.383 3.225,-1.844 4.464,-3.247c1.238,-1.403 2.868,-4.312 3.62,-6.464c1.185,-3.384 1.369,-5.232 1.369,-13.696c0,-8.627 -0.172,-10.281 -1.454,-13.978c-0.8,-2.306 -2.462,-5.342 -3.695,-6.746c-1.366,-1.557 -3.314,-2.881 -4.989,-3.392c-1.512,-0.461 -3.989,-0.645 -5.509,-0.409c-1.519,0.236 -3.797,1.204 -5.062,2.153c-1.265,0.948 -2.997,3.072 -3.85,4.719c-0.852,1.648 -1.974,5.035 -2.492,7.529c-0.519,2.493 -0.948,7.061 -0.953,10.152c-0.005,3.09 0.417,7.493 0.938,9.784c0.52,2.291 1.704,5.566 2.631,7.279c1.184,2.188 2.667,3.695 4.985,5.067c1.858,1.099 4.28,1.951 5.543,1.949c1.234,-0.003 3.238,-0.318 4.454,-0.7Zm51.449,14.121c-1.704,-0.668 -4.01,-1.949 -5.124,-2.848c-1.114,-0.899 -2.708,-2.858 -3.541,-4.353c-0.834,-1.496 -1.925,-4.685 -2.425,-7.089c-0.691,-3.321 -0.911,-9.271 -0.918,-24.811l-0.01,-20.442l-2.699,0c-1.484,0 -3.515,-0.184 -4.512,-0.41c-0.997,-0.226 -2.141,-1.007 -2.543,-1.734c-0.401,-0.728 -0.76,-3.703 -0.799,-6.612c-0.055,-4.153 0.164,-5.583 1.019,-6.653c0.875,-1.096 1.908,-1.363 5.257,-1.363l4.168,-0l0.209,-7.633c0.192,-7.002 0.337,-7.79 1.751,-9.527c0.849,-1.042 2.653,-2.475 4.01,-3.184c1.395,-0.729 3.889,-1.297 5.735,-1.306c2.657,-0.012 3.55,0.305 4.781,1.7c1.453,1.646 1.514,2.085 1.514,10.833l0,9.117l7.061,-0c6.504,-0 7.191,0.128 8.731,1.628c1.34,1.306 1.727,2.386 1.951,5.437c0.183,2.509 -0.049,4.696 -0.68,6.408l-0.96,2.601l-4.812,0.124c-2.647,0.069 -5.368,0.082 -6.047,0.029c-0.678,-0.053 -2.136,0.062 -3.239,0.256l-2.005,0.353l0.035,18.313c0.024,12.297 0.277,19.096 0.771,20.694c0.405,1.31 1.518,3.037 2.472,3.839c1.49,1.252 2.506,1.437 7.193,1.315c4.136,-0.108 5.638,0.104 6.201,0.872c0.409,0.558 0.887,3.045 1.063,5.525c0.304,4.287 0.229,4.614 -1.507,6.581c-1.005,1.138 -2.916,2.411 -4.246,2.83c-1.331,0.418 -5.195,0.752 -8.588,0.742c-4.219,-0.013 -7.149,-0.403 -9.267,-1.232l-0,-0Zm-464.233,-1.403l-1.535,-1.408l-0,-99.33l3.429,-3.876l18.027,0.055c14.257,0.043 19.067,0.298 22.997,1.217c2.733,0.639 6.736,1.974 8.894,2.968c2.158,0.993 5.445,2.909 7.305,4.256c1.859,1.348 4.844,4.108 6.633,6.135c1.789,2.026 4.281,5.505 5.537,7.73c1.257,2.225 3.061,6.453 4.009,9.396c0.948,2.942 2.064,7.989 2.48,11.216c0.471,3.642 0.618,9.002 0.39,14.138c-0.304,6.85 -0.72,9.442 -2.42,15.067c-1.129,3.736 -3.116,8.606 -4.414,10.822c-1.298,2.215 -3.971,5.832 -5.941,8.037c-1.969,2.204 -5.124,5.063 -7.011,6.353c-1.887,1.289 -5.122,3.118 -7.19,4.064c-2.067,0.946 -5.615,2.208 -7.883,2.803c-3.05,0.801 -9.032,1.172 -22.948,1.424c-18.187,0.329 -18.876,0.293 -20.359,-1.067Zm38.544,-17.978c1.997,-0.589 4.977,-1.901 6.622,-2.916c1.645,-1.014 4.253,-3.372 5.796,-5.24c1.542,-1.868 3.469,-5.041 4.281,-7.05c0.812,-2.009 1.903,-5.951 2.424,-8.759c0.522,-2.808 0.944,-7.523 0.938,-10.477c-0.006,-2.953 -0.413,-7.52 -0.904,-10.147c-0.492,-2.627 -1.559,-6.401 -2.371,-8.386c-0.813,-1.985 -2.603,-5.043 -3.979,-6.795c-1.437,-1.829 -4.166,-4.135 -6.41,-5.415c-2.15,-1.227 -5.403,-2.545 -7.231,-2.93c-1.828,-0.385 -7.033,-0.7 -11.568,-0.7l-8.244,0l0,69.886l8.508,0c5.652,0 9.725,-0.359 12.138,-1.071Zm47.216,17.844c-1.201,-1.361 -1.234,-2.329 -1.234,-36.64l0,-35.241l1.626,-1.449c1.393,-1.242 2.489,-1.448 7.677,-1.448c5.553,-0 6.13,0.127 7.011,1.553c0.528,0.854 0.96,2.762 0.96,4.24l0,2.686l2.931,-3.389c1.611,-1.864 4.041,-3.995 5.398,-4.735c1.455,-0.793 4.244,-1.457 6.798,-1.617c3.63,-0.228 4.575,-0.048 5.845,1.118c1.315,1.206 1.543,2.069 1.726,6.532c0.117,2.829 -0.027,6.401 -0.318,7.938l-0.53,2.796l-5.87,0.436c-3.671,0.273 -6.666,0.893 -7.995,1.654c-1.168,0.67 -2.773,1.889 -3.566,2.709c-0.793,0.82 -1.834,2.551 -2.313,3.847c-0.689,1.863 -0.872,7.009 -0.872,24.541c0,21.385 -0.046,22.25 -1.278,24.025c-1.242,1.789 -1.472,1.842 -8.02,1.842c-5.919,-0 -6.892,-0.171 -7.976,-1.398Zm180.897,0.31l-1.371,-1.088l0,-70.961l1.428,-1.52c1.272,-1.353 2.11,-1.519 7.677,-1.519c5.758,-0 6.324,0.122 7.209,1.553c0.528,0.854 0.96,2.726 0.96,4.16l0,2.607l2.931,-3.307c1.611,-1.819 4.031,-3.895 5.376,-4.613c1.346,-0.719 4.276,-1.456 6.511,-1.637c3.683,-0.298 4.237,-0.162 5.883,1.442c1.77,1.725 1.817,1.939 1.817,8.295c0,3.589 -0.199,7.076 -0.443,7.748c-0.365,1.007 -1.24,1.224 -4.936,1.227c-2.47,0.002 -5.602,0.348 -6.959,0.768c-1.358,0.42 -3.373,1.537 -4.479,2.482c-1.106,0.946 -2.633,3.038 -3.393,4.649c-1.33,2.82 -1.394,3.792 -1.691,25.875c-0.291,21.688 -0.374,23 -1.506,23.936c-0.846,0.7 -3.024,0.991 -7.42,0.991c-4.633,-0 -6.573,-0.278 -7.594,-1.088Zm-24.814,-122.133c0,-2.812 -0.297,-6.979 -0.659,-9.26c-0.363,-2.281 -1.731,-6.675 -3.039,-9.764c-1.309,-3.09 -3.463,-7 -4.786,-8.689l-2.406,-3.072l-3.403,6.243c-1.871,3.434 -3.733,6.951 -4.138,7.815c-0.406,0.865 -1.005,1.573 -1.332,1.573c-0.328,-0 -0.596,-0.72 -0.596,-1.6c0,-0.881 0.421,-3.475 0.935,-5.766c0.514,-2.291 1.942,-6.524 3.172,-9.407c1.231,-2.883 3.763,-7.915 5.626,-11.182c1.864,-3.267 5.317,-8.835 7.673,-12.374c2.979,-4.474 4.546,-7.559 5.144,-10.126c0.623,-2.673 0.875,-8.765 0.914,-22.083c0.046,-15.275 0.205,-18.456 0.939,-18.775c0.486,-0.211 1.787,0.513 2.892,1.611c1.105,1.097 7.042,7.97 13.193,15.273c6.15,7.303 14.231,17.209 17.956,22.014c3.725,4.805 8.137,10.03 9.804,11.611c1.667,1.582 4.596,4.01 6.51,5.397c1.913,1.387 5.052,3.309 6.974,4.272c1.956,0.98 3.323,2.066 3.105,2.466c-0.227,0.415 -3.181,0.714 -7.062,0.714c-4.354,0 -7.584,-0.364 -9.296,-1.048c-1.442,-0.577 -2.726,-1.048 -2.853,-1.048c-0.127,-0 -0.231,5.032 -0.231,11.182c-0,6.15 -0.212,11.181 -0.472,11.181c-0.259,0 -0.905,-1.179 -1.436,-2.62c-0.531,-1.442 -2.332,-7.019 -4.002,-12.393c-1.67,-5.375 -4.146,-12.272 -5.503,-15.326c-1.358,-3.055 -3.235,-6.191 -4.173,-6.97c-1.443,-1.197 -2.903,-1.46 -9.513,-1.709l-7.809,-0.295l2.192,3.059c1.205,1.682 3.04,4.874 4.076,7.092c1.037,2.219 2.355,6.427 2.929,9.352c0.745,3.795 0.955,7.141 0.733,11.69c-0.178,3.642 -0.77,7.646 -1.381,9.343c-0.588,1.634 -1.276,2.971 -1.53,2.971c-0.253,-0 -0.618,-2.13 -0.81,-4.733c-0.193,-2.603 -1.055,-6.852 -1.915,-9.442c-0.861,-2.59 -2.378,-6.043 -3.37,-7.672c-0.993,-1.63 -3.086,-4.517 -4.651,-6.416l-2.845,-3.453l-4.475,5.479c-2.461,3.013 -4.562,5.731 -4.67,6.041c-0.108,0.309 0.522,1.756 1.399,3.215c0.878,1.46 2.4,5.012 3.382,7.895c0.982,2.883 2.136,7.843 2.565,11.022c0.604,4.48 0.619,6.941 0.07,10.946c-0.39,2.841 -1.163,6.451 -1.718,8.022c-0.555,1.571 -1.257,2.857 -1.559,2.857c-0.302,-0 -0.55,-2.301 -0.55,-5.113Zm-38.866,-34.984c-0,-5.141 -0.175,-10.337 -0.389,-11.546l-0.388,-2.198l-2.061,1.781c-1.134,0.98 -3.79,2.707 -5.901,3.839c-2.111,1.131 -5.314,2.43 -7.116,2.887c-1.803,0.457 -3.452,0.634 -3.665,0.393c-0.212,-0.241 2.4,-3.44 5.806,-7.109c3.509,-3.779 9.085,-10.954 12.865,-16.552c3.669,-5.435 9.021,-12.9 11.893,-16.59c2.872,-3.69 8.176,-10.325 11.787,-14.746c3.61,-4.42 7.218,-8.901 8.017,-9.958c0.8,-1.057 1.682,-1.922 1.96,-1.922c0.278,-0 0.506,9.71 0.506,21.579c-0,16.428 -0.184,21.744 -0.771,22.271c-0.425,0.381 -5.116,0.863 -10.427,1.072c-5.31,0.209 -10.231,0.73 -10.936,1.157c-0.705,0.427 -1.567,1.38 -1.915,2.119c-0.349,0.738 -1.341,5.369 -2.204,10.292c-0.863,4.922 -2.012,10.68 -2.553,12.794c-0.541,2.114 -1.489,5.18 -2.107,6.814c-0.618,1.633 -1.411,2.97 -1.763,2.97c-0.408,-0 -0.638,-3.368 -0.638,-9.347Zm-30.23,-33.083c0,-0.391 2.199,-2.158 4.887,-3.927c2.687,-1.769 5.096,-3.602 5.353,-4.072c0.263,-0.483 0.125,-0.984 -0.32,-1.152c-0.432,-0.163 -2.771,-2.158 -5.198,-4.433c-2.428,-2.274 -6.586,-6.877 -9.242,-10.227c-2.656,-3.35 -6.47,-8.893 -8.476,-12.317c-2.006,-3.425 -4.882,-9.085 -6.392,-12.58c-1.51,-3.494 -3.596,-9.234 -4.636,-12.755c-1.041,-3.521 -2.489,-9.496 -3.218,-13.278c-1.056,-5.472 -1.339,-9.377 -1.386,-19.108c-0.035,-7.349 0.267,-14.321 0.757,-17.471c0.449,-2.883 1.62,-8.726 2.602,-12.984c0.982,-4.258 3.188,-11.709 4.902,-16.558c1.714,-4.849 4.869,-12.529 7.011,-17.068c2.142,-4.538 5.23,-10.61 6.863,-13.492c1.632,-2.883 4.918,-8.387 7.302,-12.23c2.384,-3.844 6.848,-10.448 9.921,-14.677c3.073,-4.228 9.913,-13.662 15.201,-20.966c5.288,-7.303 12.267,-17.209 15.508,-22.014c3.242,-4.804 7.957,-12.038 10.478,-16.074c2.521,-4.036 6.215,-10.265 8.209,-13.843c1.993,-3.579 4.309,-7.117 5.146,-7.863c0.838,-0.746 2.405,-1.356 3.483,-1.356c1.346,-0 2.454,0.602 3.535,1.922c0.865,1.057 3.191,4.752 5.168,8.211c1.977,3.46 6.636,11.008 10.353,16.773c3.718,5.766 10.433,15.672 14.923,22.014c4.49,6.343 12.025,16.721 16.743,23.063c4.719,6.342 10.865,14.942 13.657,19.111c2.793,4.168 6.836,10.615 8.984,14.326c2.149,3.711 5.603,10.212 7.676,14.446c2.072,4.235 4.733,10.065 5.912,12.956c1.179,2.891 3.416,9.464 4.971,14.607c1.556,5.143 3.363,12.364 4.018,16.048c0.654,3.683 1.484,10.357 1.843,14.831c0.448,5.572 0.459,10.307 0.034,15.026c-0.342,3.79 -1.068,9.398 -1.614,12.462c-0.546,3.065 -1.942,8.664 -3.103,12.443c-1.161,3.778 -3.173,9.447 -4.47,12.598c-1.297,3.151 -4.377,9.178 -6.844,13.395c-3.024,5.166 -6.725,10.206 -11.348,15.455c-3.774,4.284 -8.023,8.726 -9.443,9.87l-2.58,2.081l2.8,2.032c1.54,1.117 4.214,2.818 5.942,3.779c1.728,0.961 3.249,2.14 3.379,2.621c0.177,0.651 -1.071,0.869 -4.903,0.859c-2.828,-0.008 -6.925,-0.306 -9.105,-0.663c-2.18,-0.357 -5.731,-1.634 -7.89,-2.839c-2.16,-1.204 -5.421,-3.843 -7.248,-5.863c-1.827,-2.02 -4.437,-5.672 -5.8,-8.114c-1.363,-2.442 -2.34,-4.694 -2.17,-5.005c0.169,-0.31 2.027,-0.59 4.127,-0.621c2.101,-0.031 5.067,-0.424 6.59,-0.873c1.733,-0.511 2.845,-1.261 2.969,-2c0.125,-0.744 -0.505,-1.595 -1.695,-2.292c-1.042,-0.61 -5.217,-1.876 -9.277,-2.813c-4.061,-0.937 -9.542,-2.517 -12.18,-3.512c-2.638,-0.995 -6.283,-2.814 -8.1,-4.042c-1.816,-1.228 -4.777,-4.03 -6.579,-6.227c-2.012,-2.452 -3.756,-5.445 -4.519,-7.753c-0.683,-2.068 -1.565,-5.774 -1.96,-8.236c-0.395,-2.462 -0.543,-6.049 -0.33,-7.971c0.214,-1.922 0.691,-4.595 1.059,-5.94c0.369,-1.346 1.358,-3.488 2.198,-4.762c0.84,-1.274 2.402,-2.75 3.471,-3.28c1.069,-0.53 4.563,-1.78 7.765,-2.779c3.201,-0.999 7.405,-2.905 9.341,-4.238c1.936,-1.332 5.178,-4.43 7.205,-6.885c2.027,-2.454 4.566,-6.207 5.643,-8.34c1.078,-2.133 2.61,-6.046 3.405,-8.695c0.796,-2.65 1.65,-6.178 1.897,-7.839l0.451,-3.021l-5.259,0.421c-3.131,0.25 -7.213,1.163 -10.089,2.257c-2.658,1.011 -6.448,2.95 -8.424,4.309c-1.975,1.36 -5.004,4.072 -6.729,6.027c-1.726,1.954 -4.163,5.35 -5.416,7.546c-1.252,2.196 -2.629,4.953 -3.058,6.128c-0.668,1.825 -0.906,1.994 -1.641,1.162c-0.686,-0.777 -0.859,-4.282 -0.859,-17.343c-0,-10.149 0.259,-17.211 0.681,-18.584c0.375,-1.219 1.205,-2.533 1.844,-2.92c0.639,-0.388 2.942,-1.328 5.117,-2.089c2.176,-0.761 5.719,-2.717 7.873,-4.347c2.155,-1.629 5.514,-4.798 7.465,-7.042c2.465,-2.836 4.395,-6.034 6.327,-10.484c1.669,-3.845 3.18,-8.639 3.781,-11.995c0.706,-3.942 0.892,-7.343 0.631,-11.531c-0.204,-3.267 -0.549,-6.648 -0.768,-7.513c-0.319,-1.261 -0.844,-1.572 -2.652,-1.572c-1.24,-0 -4.286,0.637 -6.769,1.417c-2.483,0.779 -5.948,2.232 -7.699,3.228c-1.751,0.996 -4.907,3.195 -7.013,4.886c-2.106,1.692 -5.037,4.878 -6.514,7.08c-1.476,2.203 -3.398,5.42 -4.27,7.15c-0.872,1.73 -2.329,5.493 -3.238,8.364c-0.909,2.871 -2.052,8.217 -2.54,11.881c-0.487,3.664 -0.888,9.374 -0.89,12.689c-0.002,3.315 -0.177,7.01 -0.389,8.212c-0.212,1.201 -0.635,2.184 -0.941,2.184c-0.305,-0 -1.493,-2.331 -2.639,-5.179c-1.146,-2.849 -3.184,-6.868 -4.53,-8.932c-1.346,-2.064 -3.975,-5.334 -5.842,-7.266c-1.866,-1.933 -5.304,-4.645 -7.638,-6.026c-2.334,-1.381 -6.187,-3.195 -8.562,-4.032c-2.529,-0.89 -6.851,-1.688 -10.429,-1.923l-6.11,-0.403l0.419,4.634c0.231,2.549 0.96,6.607 1.621,9.018c0.661,2.411 2.251,6.428 3.532,8.927c1.281,2.498 4.053,6.466 6.158,8.816c2.411,2.692 5.673,5.361 8.808,7.209c2.738,1.613 7.644,3.7 10.902,4.636c3.258,0.936 6.596,1.702 7.418,1.702c0.822,0 2.335,0.493 3.362,1.095c1.039,0.609 2.259,2.15 2.746,3.472c0.702,1.902 0.877,7.312 0.877,27.082c-0,20.51 -0.166,25.339 -0.978,28.434c-0.537,2.051 -1.617,4.859 -2.4,6.242c-0.783,1.382 -2.356,3.498 -3.495,4.702c-1.14,1.204 -3.183,2.963 -4.54,3.909c-1.358,0.947 -4.134,2.427 -6.17,3.29c-2.035,0.864 -7.78,2.625 -12.766,3.915c-4.986,1.29 -9.914,2.842 -10.951,3.45c-1.037,0.607 -1.885,1.537 -1.885,2.066c-0,0.529 0.902,1.335 2.005,1.79c1.103,0.455 4.989,1.002 8.637,1.215c3.647,0.214 6.632,0.539 6.632,0.722c-0,0.184 -0.98,2.162 -2.178,4.396c-1.198,2.234 -3.489,5.538 -5.09,7.343c-1.601,1.804 -4.336,4.361 -6.076,5.681c-1.741,1.321 -4.517,2.866 -6.169,3.434c-1.653,0.568 -6.128,1.226 -9.945,1.462c-4.546,0.281 -6.941,0.183 -6.941,-0.283Z" style="fill:#fff;fill-rule:nonzero;"/></g></svg>